<?xml version="1.0" standalone="no"?>
<!DOCTYPE svg PUBLIC "-//W3C//DTD SVG 20010904//EN"
 "http://www.w3.org/TR/2001/REC-SVG-20010904/DTD/svg10.dtd">
<svg version="1.0" xmlns="http://www.w3.org/2000/svg"
 width="384.000000pt" height="384.000000pt" viewBox="0 0 384.000000 384.000000"
 preserveAspectRatio="xMidYMid meet">
<metadata>
Created by potrace 1.11, written by Peter Selinger 2001-2013
</metadata>
<g transform="translate(0.000000,384.000000) scale(0.100000,-0.100000)"
fill="#000000" stroke="none">
<path d="M267 2869 c-148 -34 -217 -150 -177 -299 6 -24 78 -203 159 -399 82
-196 212 -511 291 -701 180 -436 184 -445 245 -505 66 -66 125 -87 265 -91
147 -5 216 15 288 84 51 48 70 85 177 332 48 113 97 225 108 250 31 72 38 88
192 445 226 522 235 544 235 557 0 24 13 -3 16 -34 8 -74 28 -122 70 -164 59
-61 114 -74 305 -77 l154 -2 1 -595 0 -595 23 -52 c46 -104 124 -145 281 -149
188 -5 290 51 328 179 3 12 8 290 9 618 l4 596 157 1 c178 2 239 15 290 63 56
53 75 102 80 214 5 127 -17 195 -81 250 -76 65 -62 64 -787 62 l-655 -2 -42
-22 c-55 -30 -86 -60 -110 -107 l-20 -39 -6 32 c-10 49 -53 98 -114 127 -46
23 -71 28 -154 31 -205 7 -309 -46 -383 -193 -20 -42 -265 -701 -313 -847 -9
-26 -20 -44 -24 -40 -4 4 -35 85 -69 178 -34 94 -74 204 -90 245 -16 41 -56
152 -90 245 -76 207 -108 273 -157 320 -44 43 -81 64 -143 80 -53 14 -209 16
-263 4z"/>
</g>
</svg>
