<svg xmlns="http://www.w3.org/2000/svg" width="390" height="70" viewBox="0 0 390 70"><defs><style>.a{fill:#fc5185;}.a,.b{stroke:#364f6b;stroke-miterlimit:10;stroke-width:3px;}.b{fill:#f0f0f0;}</style></defs><path class="a" d="M40.8164,18.5337c1.3682-3.7446,2.5923-6.4087,8.4248-6.4087,4.1763,0,6.1924,1.3682,6.1924,4.0322a10.5959,10.5959,0,0,1-1.08,3.96L40.0244,53.3843c-1.8,4.1767-2.9526,6.1206-8.2807,6.1206-5.9048,0-6.9126-2.376-8.4971-6.1206L9.5654,20.2617a9.5656,9.5656,0,0,1-1.08-3.8882c0-2.9526,2.3042-4.2485,6.4809-4.2485,5.1841,0,6.6963,2.0161,8.3525,6.5527l8.7847,23.9058Z"/><path class="a" d="M84.4468,52.3765c0,2.3042,0,3.8881-1.0078,5.1845s-2.6641,1.9439-5.5445,1.9439-4.5366-.648-5.5444-1.9439-1.0083-2.88-1.0083-5.1845V24.438H65.1494c-2.3042,0-3.8882,0-5.1846-.936-1.2959-.8643-1.9443-2.3765-1.9443-4.9683s.6484-4.1045,1.9443-4.9688c1.2964-.936,2.88-.936,5.1846-.936H90.64c2.3042,0,3.8882,0,5.1846.936,1.2959.8643,1.9439,2.3765,1.9439,4.9688s-.648,4.104-1.9439,4.9683c-1.2964.936-2.88.936-5.1846.936H84.4468Z"/><path class="b" d="M126.7114,49.8564H110.6543l-1.2964,3.6c-1.5122,4.1763-3.312,6.0484-7.8486,6.0484-4.1045,0-5.6162-1.5122-5.6162-3.8159a7.505,7.505,0,0,1,.792-3.0967L111.374,17.7412c1.5122-3.6719,3.24-5.6162,7.8487-5.6162,4.6806,0,6.1928,2.0161,7.6328,5.6162l14.185,34.9234a8.8,8.8,0,0,1,.6485,2.88c0,2.5918-2.0166,3.96-6.1206,3.96-4.32,0-5.8326-1.5122-7.4888-5.9766Zm-12.457-9.937h8.9287l-4.4643-12.0971Z"/><path class="b" d="M187.0483,50.6484c0,3.3843-.6474,5.1841-4.7519,6.9126a34.52,34.52,0,0,1-12.6016,2.3042c-13.6806,0-24.77-8.0649-24.77-23.978,0-16.9936,12.5293-24.1943,25.13-24.1943a28.1169,28.1169,0,0,1,12.3135,2.5923c2.3037,1.2241,3.8154,2.8081,3.8154,5.3286,0,2.664-1.7276,6.6963-5.3281,6.6963a12.6422,12.6422,0,0,1-4.6807-1.3682,16.4531,16.4531,0,0,0-6.5518-1.44c-5.977,0-11.4492,3.456-11.4492,12.3129,0,8.6407,5.2564,12.6011,11.52,12.6011a13.2479,13.2479,0,0,0,4.249-.6479V44.4556c0-2.3042,0-3.8882,1.0079-5.1841s2.664-1.9444,5.5439-1.9444,4.5371.648,5.5449,1.9444,1.0078,2.88,1.0078,5.1841Z"/><path class="b" d="M208.1416,29.4062H214.91c2.3037,0,3.8886,0,5.1845.8643s1.9444,2.2324,1.9444,4.68c0,2.3764-.6485,3.7446-1.9444,4.6084s-2.8808.8642-5.1845.8642h-6.7686v7.7046h10.8008c2.3047,0,3.8887,0,5.1846.8643s1.9443,2.2319,1.9443,4.68c0,2.3764-.6484,3.7446-1.9443,4.6084s-2.88.8642-5.1846.8642H201.8047c-4.4644,0-6.1206-1.6562-6.1206-6.1206V18.75c0-4.4643,1.6562-6.1206,6.1206-6.1206h15.8418c2.3037,0,3.8877,0,5.1846.8643s1.9433,2.2319,1.9433,4.68c0,2.3765-.6474,3.7447-1.9433,4.6084s-2.8809.8643-5.1846.8643h-9.5049Z"/><path class="b" d="M247.0938,52.3765c0,2.3042,0,3.8881-1.0079,5.1845-.9365,1.2959-2.52,1.9439-5.3291,1.9439s-4.3916-.648-5.3281-1.9439c-1.0078-1.2964-1.0078-2.88-1.0078-5.1845V17.1655c0-3.0962,2.2324-5.0405,7.0566-5.0405,4.9678,0,6.8409,1.9443,8.6407,4.32l15.9853,21.89V19.2534c0-2.3042,0-3.8882,1.0078-5.1841.9366-1.2964,2.52-1.9443,5.3291-1.9443s4.3916.6479,5.3282,1.9443c1.0078,1.2959,1.0078,2.88,1.0078,5.1841V54.5366c0,3.4561-2.2325,5.1846-6.12,5.1846-3.9609,0-5.9042-1.6563-7.7773-4.1045L247.0938,32.3589Z"/><path class="b" d="M323.8467,54.9688c-4.8965,3.24-11.4492,4.68-20.1621,4.68-5.8321,0-8.7842-.6479-10.585-1.44-3.0244-1.3682-3.3838-3.3843-3.3838-6.3364V19.9736c0-3.8882.792-5.9765,5.8321-7.1284a49.6721,49.6721,0,0,1,10.2255-.8642c6.9121,0,13.3926.8642,18.5049,4.3925,4.6807,3.24,8.6406,9.0728,8.6406,19.0816C332.9189,45.9678,328.5986,51.8,323.8467,54.9688Zm-21.17-6.6246s1.3681.1441,2.9521.1441c4.32,0,14.041-1.0083,14.041-12.4571,0-4.9687-1.8-8.353-4.1758-10.2973s-5.4-2.5918-9.289-2.5918a23.7715,23.7715,0,0,0-3.5283.2158Z"/><path class="b" d="M366.83,49.8564H350.7725l-1.2959,3.6c-1.5118,4.1763-3.3125,6.0484-7.8487,6.0484-4.1045,0-5.6162-1.5122-5.6162-3.8159a7.505,7.505,0,0,1,.792-3.0967l14.69-34.8511c1.5117-3.6719,3.24-5.6162,7.8486-5.6162,4.68,0,6.1924,2.0161,7.6328,5.6162l14.1846,34.9234a8.79,8.79,0,0,1,.6484,2.88c0,2.5918-2.0166,3.96-6.1211,3.96-4.32,0-5.832-1.5122-7.4883-5.9766Zm-12.4571-9.937h8.9288l-4.4639-12.0971Z"/></svg>